<?xml version="1.0" encoding="utf-8"?>
<!-- Generator: Adobe Illustrator 26.0.3, SVG Export Plug-In . SVG Version: 6.00 Build 0)  -->
<svg version="1.1" id="Layer_1" xmlns="http://www.w3.org/2000/svg" xmlns:xlink="http://www.w3.org/1999/xlink" x="0px" y="0px"
	 viewBox="0 0 800 800" style="enable-background:new 0 0 800 800;" xml:space="preserve">
<style type="text/css">
	.st0{fill:none;stroke:#FFFFFF;stroke-width:48;stroke-linecap:round;stroke-linejoin:round;stroke-miterlimit:128;}
	.st1{fill:#FFFFFF;}
	.st2{fill:none;}
</style>
<path class="st0" d="M496,176H304c-70.7,0-128,57.3-128,128v192c0,70.7,57.3,128,128,128h192c70.7,0,128-57.3,128-128V304
	C624,233.3,566.7,176,496,176z"/>
<path class="st0" d="M400,496c-53,0-96-43-96-96s43-96,96-96s96,43,96,96c0,25.5-10.1,49.9-28.1,67.9S425.5,496,400,496z"/>
<path class="st1" d="M496,272L496,272c0-17.7,14.3-32,32-32l0,0c17.7,0,32,14.3,32,32l0,0c0,17.7-14.3,32-32,32l0,0
	C510.3,304,496,289.7,496,272z"/>
<path class="st2" d="M512,272L512,272c0-8.8,7.2-16,16-16l0,0c8.8,0,16,7.2,16,16l0,0c0,8.8-7.2,16-16,16l0,0
	C519.2,288,512,280.8,512,272z"/>
</svg>
