<?xml version="1.0" encoding="utf-8"?>
<!-- Generator: Adobe Illustrator 26.0.3, SVG Export Plug-In . SVG Version: 6.00 Build 0)  -->
<svg version="1.1" id="Layer_1" xmlns="http://www.w3.org/2000/svg" xmlns:xlink="http://www.w3.org/1999/xlink" x="0px" y="0px"
	 viewBox="0 0 800 800" style="enable-background:new 0 0 800 800;" xml:space="preserve">
<style type="text/css">
	.st0{fill-rule:evenodd;clip-rule:evenodd;fill:#FFFFFF;}
</style>
<path class="st0" d="M84.8,172.3c16.7-23.3,44-38.9,75.2-38.9h480c31.2,0,58.4,15.6,75.2,38.9c11.5,15.9,18.1,35.6,18.1,56.6v342.2
	c0,51.6-40.7,95.6-93.3,95.6H160c-52.7,0-93.3-43.9-93.3-95.6V228.9C66.7,207.8,73.4,188.2,84.8,172.3z M164.4,200l210.9,232.2
	c13.2,14.6,36.1,14.6,49.3,0L635.6,200H164.4z M666.7,264.9L474,477c-39.7,43.7-108.4,43.7-148,0L133.3,264.9v306.2
	c0,17.1,13.1,28.9,26.7,28.9h480c13.6,0,26.7-11.8,26.7-28.9V264.9z"/>
</svg>
